<?xml version="1.0" encoding="UTF-8" ?>
<svg version="1.1" width="32" height="32" xmlns="http://www.w3.org/2000/svg" shape-rendering="crispEdges">
<rect x="9" y="6" width="4" height="1" fill="#000000" />
<rect x="19" y="6" width="4" height="1" fill="#000000" />
<rect x="8" y="7" width="1" height="1" fill="#000000" />
<rect x="9" y="7" width="4" height="4" fill="#FFFFFF" />
<rect x="13" y="7" width="1" height="1" fill="#000000" />
<rect x="18" y="7" width="1" height="1" fill="#000000" />
<rect x="19" y="7" width="4" height="4" fill="#FFFFFF" />
<rect x="23" y="7" width="1" height="1" fill="#000000" />
<rect x="7" y="8" width="1" height="1" fill="#000000" />
<rect x="8" y="8" width="1" height="5" fill="#FFFFFF" />
<rect x="13" y="8" width="1" height="5" fill="#FFFFFF" />
<rect x="14" y="8" width="4" height="1" fill="#000000" />
<rect x="18" y="8" width="1" height="5" fill="#FFFFFF" />
<rect x="23" y="8" width="1" height="5" fill="#FFFFFF" />
<rect x="24" y="8" width="1" height="1" fill="#000000" />
<rect x="6" y="9" width="1" height="1" fill="#000000" />
<rect x="7" y="9" width="1" height="2" fill="#FFFFFF" />
<rect x="14" y="9" width="4" height="4" fill="#FFFFFF" />
<rect x="24" y="9" width="1" height="3" fill="#FFFFFF" />
<rect x="25" y="9" width="1" height="1" fill="#000000" />
<rect x="5" y="10" width="1" height="3" fill="#000000" />
<rect x="6" y="10" width="1" height="13" fill="#FFFFFF" />
<rect x="25" y="10" width="1" height="1" fill="#FFFFFF" />
<rect x="26" y="10" width="1" height="3" fill="#000000" />
<rect x="7" y="11" width="1" height="5" fill="#000000" />
<rect x="9" y="11" width="1" height="1" fill="#FFFFFF" />
<rect x="10" y="11" width="1" height="1" fill="#000000" />
<rect x="11" y="11" width="2" height="2" fill="#FFFFFF" />
<rect x="19" y="11" width="2" height="2" fill="#FFFFFF" />
<rect x="21" y="11" width="1" height="1" fill="#000000" />
<rect x="22" y="11" width="1" height="1" fill="#FFFFFF" />
<rect x="25" y="11" width="1" height="5" fill="#000000" />
<rect x="9" y="12" width="1" height="1" fill="#000000" />
<rect x="10" y="12" width="1" height="3" fill="#FFFFFF" />
<rect x="21" y="12" width="1" height="3" fill="#FFFFFF" />
<rect x="22" y="12" width="1" height="1" fill="#000000" />
<rect x="24" y="12" width="1" height="1" fill="#000000" />
<rect x="4" y="13" width="1" height="7" fill="#000000" />
<rect x="5" y="13" width="1" height="7" fill="#FFFFFF" />
<rect x="8" y="13" width="1" height="1" fill="#000000" />
<rect x="9" y="13" width="1" height="1" fill="#FFFFFF" />
<rect x="11" y="13" width="1" height="5" fill="#FFFFFF" />
<rect x="12" y="13" width="2" height="1" fill="#000000" />
<rect x="14" y="13" width="1" height="3" fill="#FFFFFF" />
<rect x="15" y="13" width="2" height="1" fill="#000000" />
<rect x="17" y="13" width="1" height="3" fill="#FFFFFF" />
<rect x="18" y="13" width="2" height="1" fill="#000000" />
<rect x="20" y="13" width="1" height="5" fill="#FFFFFF" />
<rect x="22" y="13" width="1" height="1" fill="#FFFFFF" />
<rect x="23" y="13" width="1" height="1" fill="#000000" />
<rect x="24" y="13" width="1" height="11" fill="#FFFFFF" />
<rect x="26" y="13" width="1" height="7" fill="#FFFFFF" />
<rect x="27" y="13" width="1" height="7" fill="#000000" />
<rect x="8" y="14" width="1" height="10" fill="#FFFFFF" />
<rect x="9" y="14" width="1" height="1" fill="#000000" />
<rect x="12" y="14" width="2" height="3" fill="#FFFFFF" />
<rect x="15" y="14" width="2" height="2" fill="#FFFFFF" />
<rect x="18" y="14" width="2" height="3" fill="#FFFFFF" />
<rect x="22" y="14" width="1" height="1" fill="#000000" />
<rect x="23" y="14" width="1" height="10" fill="#FFFFFF" />
<rect x="9" y="15" width="1" height="8" fill="#FFFFFF" />
<rect x="10" y="15" width="1" height="1" fill="#000000" />
<rect x="21" y="15" width="1" height="1" fill="#000000" />
<rect x="22" y="15" width="1" height="8" fill="#FFFFFF" />
<rect x="7" y="16" width="1" height="8" fill="#FFFFFF" />
<rect x="10" y="16" width="1" height="4" fill="#FFFFFF" />
<rect x="14" y="16" width="4" height="1" fill="#000000" />
<rect x="21" y="16" width="1" height="4" fill="#FFFFFF" />
<rect x="25" y="16" width="1" height="7" fill="#FFFFFF" />
<rect x="12" y="17" width="2" height="1" fill="#000000" />
<rect x="18" y="17" width="2" height="1" fill="#000000" />
<rect x="11" y="18" width="1" height="2" fill="#000000" />
<rect x="20" y="18" width="1" height="2" fill="#000000" />
<rect x="5" y="20" width="1" height="3" fill="#000000" />
<rect x="10" y="20" width="1" height="3" fill="#000000" />
<rect x="21" y="20" width="1" height="3" fill="#000000" />
<rect x="26" y="20" width="1" height="3" fill="#000000" />
<rect x="6" y="23" width="1" height="1" fill="#000000" />
<rect x="9" y="23" width="1" height="1" fill="#000000" />
<rect x="22" y="23" width="1" height="1" fill="#000000" />
<rect x="25" y="23" width="1" height="1" fill="#000000" />
<rect x="7" y="24" width="2" height="1" fill="#000000" />
<rect x="23" y="24" width="2" height="1" fill="#000000" />
</svg>